<svg xmlns="http://www.w3.org/2000/svg" xmlns:xlink="http://www.w3.org/1999/xlink" contentStyleType="text/css" data-diagram-type="CLASS" height="1053px" preserveAspectRatio="none" style="width:2827px;height:1053px;background:#FFFFFF;" version="1.1" viewBox="0 0 2827 1053" width="2827px" zoomAndPan="magnify"><defs/><g><!--cluster com--><g class="cluster" data-entity="com" data-source-line="3" data-uid="ent0004" id="cluster_com"><path d="M8.5,6 L42.0049,6 A3.75,3.75 0 0 1 44.5049,8.5 L51.5049,28.2969 L2817.5,28.2969 A2.5,2.5 0 0 1 2820,30.7969 L2820,1043.89 A2.5,2.5 0 0 1 2817.5,1046.39 L8.5,1046.39 A2.5,2.5 0 0 1 6,1043.89 L6,8.5 A2.5,2.5 0 0 1 8.5,6" fill="none" style="stroke:#000000;stroke-width:1.5;"/><line style="stroke:#000000;stroke-width:1.5;" x1="6" x2="51.5049" y1="28.2969" y2="28.2969"/><text fill="#000000" font-family="sans-serif" font-size="14" font-weight="bold" lengthAdjust="spacing" textLength="32.5049" x="10" y="20.9951">com</text></g><!--cluster votregame--><g class="cluster" data-entity="votregame" data-source-line="3" data-uid="ent0005" id="cluster_votregame"><path d="M32.5,49 L118.8877,49 A3.75,3.75 0 0 1 121.3877,51.5 L128.3877,71.2969 L2793.5,71.2969 A2.5,2.5 0 0 1 2796,73.7969 L2796,1019.89 A2.5,2.5 0 0 1 2793.5,1022.39 L32.5,1022.39 A2.5,2.5 0 0 1 30,1019.89 L30,51.5 A2.5,2.5 0 0 1 32.5,49" fill="none" style="stroke:#000000;stroke-width:1.5;"/><line style="stroke:#000000;stroke-width:1.5;" x1="30" x2="128.3877" y1="71.2969" y2="71.2969"/><text fill="#000000" font-family="sans-serif" font-size="14" font-weight="bold" lengthAdjust="spacing" textLength="85.3877" x="34" y="63.9951">votregame</text></g><!--cluster characters--><g class="cluster" data-entity="characters" data-source-line="2" data-uid="ent0002" id="cluster_characters"><path d="M528.5,272.59 L613.2881,272.59 A3.75,3.75 0 0 1 615.7881,275.09 L622.7881,294.8869 L911.5,294.8869 A2.5,2.5 0 0 1 914,297.3869 L914,735.4 A2.5,2.5 0 0 1 911.5,737.9 L528.5,737.9 A2.5,2.5 0 0 1 526,735.4 L526,275.09 A2.5,2.5 0 0 1 528.5,272.59" fill="none" style="stroke:#000000;stroke-width:1.5;"/><line style="stroke:#000000;stroke-width:1.5;" x1="526" x2="622.7881" y1="294.8869" y2="294.8869"/><text fill="#000000" font-family="sans-serif" font-size="14" font-weight="bold" lengthAdjust="spacing" textLength="83.7881" x="530" y="287.5851">characters</text></g><!--cluster abilities--><g class="cluster" data-entity="abilities" data-source-line="23" data-uid="ent0010" id="cluster_abilities"><path d="M940.5,630.75 L1004.6846,630.75 A3.75,3.75 0 0 1 1007.1846,633.25 L1014.1846,653.0469 L1689.5,653.0469 A2.5,2.5 0 0 1 1692,655.5469 L1692,934.72 A2.5,2.5 0 0 1 1689.5,937.22 L940.5,937.22 A2.5,2.5 0 0 1 938,934.72 L938,633.25 A2.5,2.5 0 0 1 940.5,630.75" fill="none" style="stroke:#000000;stroke-width:1.5;"/><line style="stroke:#000000;stroke-width:1.5;" x1="938" x2="1014.1846" y1="653.0469" y2="653.0469"/><text fill="#000000" font-family="sans-serif" font-size="14" font-weight="bold" lengthAdjust="spacing" textLength="63.1846" x="942" y="645.7451">abilities</text></g><!--cluster stats--><g class="cluster" data-entity="stats" data-source-line="36" data-uid="ent0018" id="cluster_stats"><path d="M1718.5,777.05 L1758.998,777.05 A3.75,3.75 0 0 1 1761.498,779.55 L1768.498,799.3469 L2769.5,799.3469 A2.5,2.5 0 0 1 2772,801.8469 L2772,995.89 A2.5,2.5 0 0 1 2769.5,998.39 L1718.5,998.39 A2.5,2.5 0 0 1 1716,995.89 L1716,779.55 A2.5,2.5 0 0 1 1718.5,777.05" fill="none" style="stroke:#000000;stroke-width:1.5;"/><line style="stroke:#000000;stroke-width:1.5;" x1="1716" x2="1768.498" y1="799.3469" y2="799.3469"/><text fill="#000000" font-family="sans-serif" font-size="14" font-weight="bold" lengthAdjust="spacing" textLength="39.498" x="1720" y="792.0451">stats</text></g><!--cluster items--><g class="cluster" data-entity="items" data-source-line="57" data-uid="ent0023" id="cluster_items"><path d="M56.5,100.15 L101.4072,100.15 A3.75,3.75 0 0 1 103.9072,102.65 L110.9072,122.4469 L499.5,122.4469 A2.5,2.5 0 0 1 502,124.9469 L502,483.17 A2.5,2.5 0 0 1 499.5,485.67 L56.5,485.67 A2.5,2.5 0 0 1 54,483.17 L54,102.65 A2.5,2.5 0 0 1 56.5,100.15" fill="none" style="stroke:#000000;stroke-width:1.5;"/><line style="stroke:#000000;stroke-width:1.5;" x1="54" x2="110.9072" y1="122.4469" y2="122.4469"/><text fill="#000000" font-family="sans-serif" font-size="14" font-weight="bold" lengthAdjust="spacing" textLength="43.9072" x="58" y="115.1451">items</text></g><!--cluster combat--><g class="cluster" data-entity="combat" data-source-line="65" data-uid="ent0029" id="cluster_combat"><path d="M528.5,92 L588.166,92 A3.75,3.75 0 0 1 590.666,94.5 L597.666,114.2969 L1412.5,114.2969 A2.5,2.5 0 0 1 1415,116.7969 L1415,221.09 A2.5,2.5 0 0 1 1412.5,223.59 L528.5,223.59 A2.5,2.5 0 0 1 526,221.09 L526,94.5 A2.5,2.5 0 0 1 528.5,92" fill="none" style="stroke:#000000;stroke-width:1.5;"/><line style="stroke:#000000;stroke-width:1.5;" x1="526" x2="597.666" y1="114.2969" y2="114.2969"/><text fill="#000000" font-family="sans-serif" font-size="14" font-weight="bold" lengthAdjust="spacing" textLength="58.666" x="530" y="106.9951">combat</text></g><!--cluster utils--><g class="cluster" data-entity="utils" data-source-line="76" data-uid="ent0032" id="cluster_utils"><path d="M1995.5,108.3 L2031.0898,108.3 A3.75,3.75 0 0 1 2033.5898,110.8 L2040.5898,130.5969 L2214.5,130.5969 A2.5,2.5 0 0 1 2217,133.0969 L2217,483.17 A2.5,2.5 0 0 1 2214.5,485.67 L1995.5,485.67 A2.5,2.5 0 0 1 1993,483.17 L1993,110.8 A2.5,2.5 0 0 1 1995.5,108.3" fill="none" style="stroke:#000000;stroke-width:1.5;"/><line style="stroke:#000000;stroke-width:1.5;" x1="1993" x2="2040.5898" y1="130.5969" y2="130.5969"/><text fill="#000000" font-family="sans-serif" font-size="14" font-weight="bold" lengthAdjust="spacing" textLength="34.5898" x="1997" y="123.2951">utils</text></g><!--class Character--><g class="entity" data-entity="Character" data-source-line="3" data-uid="ent0003" id="entity_Character"><rect fill="#F1F1F1" height="276.1563" rx="2.5" ry="2.5" style="stroke:#181818;stroke-width:0.5;" width="355.5264" x="542.24" y="307.59"/><ellipse cx="681.1941" cy="323.59" fill="#A9DCDF" rx="11" ry="11" style="stroke:#181818;stroke-width:1;"/><path d="M681.3035,318.9338 L680.1472,324.0119 L682.4754,324.0119 L681.3035,318.9338 Z M679.8191,316.6994 L682.8035,316.6994 L686.1629,329.09 L683.7097,329.09 L682.9441,326.0275 L679.6629,326.0275 L678.9129,329.09 L676.4754,329.09 L679.8191,316.6994 Z " fill="#000000"/><text fill="#000000" font-family="sans-serif" font-size="14" font-style="italic" lengthAdjust="spacing" textLength="69.1182" x="701.6941" y="328.4367">Character</text><line style="stroke:#181818;stroke-width:0.5;" x1="543.24" x2="896.7664" y1="339.59" y2="339.59"/><rect fill="none" height="6" style="stroke:#C82930;stroke-width:1;" width="6" x="550.24" y="350.2384"/><text fill="#000000" font-family="sans-serif" font-size="14" lengthAdjust="spacing" textLength="90.6514" x="562.24" y="356.5851">name: String</text><rect fill="none" height="6" style="stroke:#C82930;stroke-width:1;" width="6" x="550.24" y="366.5353"/><text fill="#000000" font-family="sans-serif" font-size="14" lengthAdjust="spacing" textLength="86.6934" x="562.24" y="372.882">strength: int</text><rect fill="none" height="6" style="stroke:#C82930;stroke-width:1;" width="6" x="550.24" y="382.8322"/><text fill="#000000" font-family="sans-serif" font-size="14" lengthAdjust="spacing" textLength="70.3281" x="562.24" y="389.1789">agility: int</text><rect fill="none" height="6" style="stroke:#C82930;stroke-width:1;" width="6" x="550.24" y="399.1291"/><text fill="#000000" font-family="sans-serif" font-size="14" lengthAdjust="spacing" textLength="108.6367" x="562.24" y="405.4757">intelligence: int</text><rect fill="none" height="6" style="stroke:#C82930;stroke-width:1;" width="6" x="550.24" y="415.4259"/><text fill="#000000" font-family="sans-serif" font-size="14" lengthAdjust="spacing" textLength="69.7129" x="562.24" y="421.7726">speed: int</text><rect fill="none" height="6" style="stroke:#C82930;stroke-width:1;" width="6" x="550.24" y="431.7228"/><text fill="#000000" font-family="sans-serif" font-size="14" lengthAdjust="spacing" textLength="60.71" x="562.24" y="438.0695">level: int</text><rect fill="none" height="6" style="stroke:#C82930;stroke-width:1;" width="6" x="550.24" y="448.0197"/><text fill="#000000" font-family="sans-serif" font-size="14" lengthAdjust="spacing" textLength="105.2598" x="562.24" y="454.3664">experience: int</text><rect fill="none" height="6" style="stroke:#C82930;stroke-width:1;" width="6" x="550.24" y="464.3166"/><text fill="#000000" font-family="sans-serif" font-size="14" lengthAdjust="spacing" textLength="329.5264" x="562.24" y="470.6632">abilities: List&lt;com.votregame.abilities.Ability&gt;</text><line style="stroke:#181818;stroke-width:0.5;" x1="543.24" x2="896.7664" y1="477.965" y2="477.965"/><ellipse cx="553.24" cy="491.6134" fill="#84BE84" rx="3" ry="3" style="stroke:#038048;stroke-width:1;"/><text fill="#000000" font-family="sans-serif" font-size="14" lengthAdjust="spacing" textLength="214.7578" x="562.24" y="494.9601">attack(target: Character): void</text><ellipse cx="553.24" cy="507.9103" fill="#84BE84" rx="3" ry="3" style="stroke:#038048;stroke-width:1;"/><text fill="#000000" font-family="sans-serif" font-size="14" lengthAdjust="spacing" textLength="98.5195" x="562.24" y="511.257">defend(): void</text><ellipse cx="553.24" cy="524.2072" fill="#84BE84" rx="3" ry="3" style="stroke:#038048;stroke-width:1;"/><text fill="#000000" font-family="sans-serif" font-size="14" lengthAdjust="spacing" textLength="314.3506" x="562.24" y="527.5539">useAbility(a: com.votregame.abilities.Ability,</text><text fill="#000000" font-family="sans-serif" font-size="14" lengthAdjust="spacing" textLength="165.3545" x="562.24" y="543.8507">target: Character): void</text><ellipse cx="553.24" cy="556.8009" fill="#84BE84" rx="3" ry="3" style="stroke:#038048;stroke-width:1;"/><text fill="#000000" font-family="sans-serif" font-size="14" lengthAdjust="spacing" textLength="202.6104" x="562.24" y="560.1476">gainExperience(xp: int): void</text><ellipse cx="553.24" cy="573.0978" fill="#84BE84" rx="3" ry="3" style="stroke:#038048;stroke-width:1;"/><text fill="#000000" font-family="sans-serif" font-size="14" lengthAdjust="spacing" textLength="102.1426" x="562.24" y="576.4445">levelUp(): void</text></g><!--class Player--><g class="entity" data-entity="Player" data-source-line="19" data-uid="ent0006" id="entity_Player"><rect fill="#F1F1F1" height="48" rx="2.5" ry="2.5" style="stroke:#181818;stroke-width:0.5;" width="75.5654" x="745.22" y="673.9"/><ellipse cx="760.22" cy="689.9" fill="#ADD1B2" rx="11" ry="11" style="stroke:#181818;stroke-width:1;"/><path d="M763.1888,695.5406 Q762.6106,695.8375 761.97,695.9781 Q761.3294,696.1344 760.6263,696.1344 Q758.1263,696.1344 756.7981,694.4938 Q755.4856,692.8375 755.4856,689.7125 Q755.4856,686.5875 756.7981,684.9313 Q758.1263,683.275 760.6263,683.275 Q761.3294,683.275 761.97,683.4313 Q762.6263,683.5875 763.1888,683.8844 L763.1888,686.6031 Q762.5638,686.025 761.97,685.7594 Q761.3763,685.4781 760.7513,685.4781 Q759.4075,685.4781 758.72,686.5563 Q758.0325,687.6188 758.0325,689.7125 Q758.0325,691.8063 758.72,692.8844 Q759.4075,693.9469 760.7513,693.9469 Q761.3763,693.9469 761.97,693.6813 Q762.5638,693.4 763.1888,692.8219 L763.1888,695.5406 Z " fill="#000000"/><text fill="#000000" font-family="sans-serif" font-size="14" lengthAdjust="spacing" textLength="43.5654" x="774.22" y="694.7467">Player</text><line style="stroke:#181818;stroke-width:0.5;" x1="746.22" x2="819.7854" y1="705.9" y2="705.9"/><line style="stroke:#181818;stroke-width:0.5;" x1="746.22" x2="819.7854" y1="713.9" y2="713.9"/></g><!--class NPC--><g class="entity" data-entity="NPC" data-source-line="20" data-uid="ent0008" id="entity_NPC"><rect fill="#F1F1F1" height="48" rx="2.5" ry="2.5" style="stroke:#181818;stroke-width:0.5;" width="60.6904" x="649.65" y="673.9"/><ellipse cx="664.65" cy="689.9" fill="#ADD1B2" rx="11" ry="11" style="stroke:#181818;stroke-width:1;"/><path d="M667.6188,695.5406 Q667.0406,695.8375 666.4,695.9781 Q665.7594,696.1344 665.0563,696.1344 Q662.5563,696.1344 661.2281,694.4938 Q659.9156,692.8375 659.9156,689.7125 Q659.9156,686.5875 661.2281,684.9313 Q662.5563,683.275 665.0563,683.275 Q665.7594,683.275 666.4,683.4313 Q667.0563,683.5875 667.6188,683.8844 L667.6188,686.6031 Q666.9938,686.025 666.4,685.7594 Q665.8063,685.4781 665.1813,685.4781 Q663.8375,685.4781 663.15,686.5563 Q662.4625,687.6188 662.4625,689.7125 Q662.4625,691.8063 663.15,692.8844 Q663.8375,693.9469 665.1813,693.9469 Q665.8063,693.9469 666.4,693.6813 Q666.9938,693.4 667.6188,692.8219 L667.6188,695.5406 Z " fill="#000000"/><text fill="#000000" font-family="sans-serif" font-size="14" lengthAdjust="spacing" textLength="28.6904" x="678.65" y="694.7467">NPC</text><line style="stroke:#181818;stroke-width:0.5;" x1="650.65" x2="709.3404" y1="705.9" y2="705.9"/><line style="stroke:#181818;stroke-width:0.5;" x1="650.65" x2="709.3404" y1="713.9" y2="713.9"/></g><!--class Ability--><g class="entity" data-entity="Ability" data-source-line="24" data-uid="ent0011" id="entity_Ability"><rect fill="#F1F1F1" height="48" rx="2.5" ry="2.5" style="stroke:#181818;stroke-width:0.5;" width="75.9072" x="954.05" y="673.9"/><ellipse cx="969.05" cy="689.9" fill="#B4A7E5" rx="11" ry="11" style="stroke:#181818;stroke-width:1;"/><path d="M964.9719,685.6656 L964.9719,683.5094 L972.3625,683.5094 L972.3625,685.6656 L969.8938,685.6656 L969.8938,693.7438 L972.3625,693.7438 L972.3625,695.9 L964.9719,695.9 L964.9719,693.7438 L967.4406,693.7438 L967.4406,685.6656 L964.9719,685.6656 Z " fill="#000000"/><text fill="#000000" font-family="sans-serif" font-size="14" font-style="italic" lengthAdjust="spacing" textLength="43.9072" x="983.05" y="694.7467">Ability</text><line style="stroke:#181818;stroke-width:0.5;" x1="955.05" x2="1028.9572" y1="705.9" y2="705.9"/><line style="stroke:#181818;stroke-width:0.5;" x1="955.05" x2="1028.9572" y1="713.9" y2="713.9"/></g><!--class RaceAbility--><g class="entity" data-entity="RaceAbility" data-source-line="25" data-uid="ent0012" id="entity_RaceAbility"><rect fill="#F1F1F1" height="48" rx="2.5" ry="2.5" style="stroke:#181818;stroke-width:0.5;" width="110.5244" x="953.74" y="873.22"/><ellipse cx="968.74" cy="889.22" fill="#B4A7E5" rx="11" ry="11" style="stroke:#181818;stroke-width:1;"/><path d="M964.6619,884.9856 L964.6619,882.8294 L972.0525,882.8294 L972.0525,884.9856 L969.5838,884.9856 L969.5838,893.0638 L972.0525,893.0638 L972.0525,895.22 L964.6619,895.22 L964.6619,893.0638 L967.1306,893.0638 L967.1306,884.9856 L964.6619,884.9856 Z " fill="#000000"/><text fill="#000000" font-family="sans-serif" font-size="14" font-style="italic" lengthAdjust="spacing" textLength="78.5244" x="982.74" y="894.0667">RaceAbility</text><line style="stroke:#181818;stroke-width:0.5;" x1="954.74" x2="1063.2644" y1="905.22" y2="905.22"/><line style="stroke:#181818;stroke-width:0.5;" x1="954.74" x2="1063.2644" y1="913.22" y2="913.22"/></g><!--class ClassAbility--><g class="entity" data-entity="ClassAbility" data-source-line="26" data-uid="ent0014" id="entity_ClassAbility"><rect fill="#F1F1F1" height="48" rx="2.5" ry="2.5" style="stroke:#181818;stroke-width:0.5;" width="112.7393" x="1099.63" y="873.22"/><ellipse cx="1114.63" cy="889.22" fill="#B4A7E5" rx="11" ry="11" style="stroke:#181818;stroke-width:1;"/><path d="M1110.5519,884.9856 L1110.5519,882.8294 L1117.9425,882.8294 L1117.9425,884.9856 L1115.4738,884.9856 L1115.4738,893.0638 L1117.9425,893.0638 L1117.9425,895.22 L1110.5519,895.22 L1110.5519,893.0638 L1113.0206,893.0638 L1113.0206,884.9856 L1110.5519,884.9856 Z " fill="#000000"/><text fill="#000000" font-family="sans-serif" font-size="14" font-style="italic" lengthAdjust="spacing" textLength="80.7393" x="1128.63" y="894.0667">ClassAbility</text><line style="stroke:#181818;stroke-width:0.5;" x1="1100.63" x2="1211.3693" y1="905.22" y2="905.22"/><line style="stroke:#181818;stroke-width:0.5;" x1="1100.63" x2="1211.3693" y1="913.22" y2="913.22"/></g><!--class RaceAbilityProvider--><g class="entity" data-entity="RaceAbilityProvider" data-source-line="28" data-uid="ent0016" id="entity_RaceAbilityProvider"><rect fill="#F1F1F1" height="64.2969" rx="2.5" ry="2.5" style="stroke:#181818;stroke-width:0.5;" width="285.5742" x="1065.21" y="665.75"/><ellipse cx="1135.3877" cy="681.75" fill="#B4A7E5" rx="11" ry="11" style="stroke:#181818;stroke-width:1;"/><path d="M1131.3096,677.5156 L1131.3096,675.3594 L1138.7002,675.3594 L1138.7002,677.5156 L1136.2315,677.5156 L1136.2315,685.5938 L1138.7002,685.5938 L1138.7002,687.75 L1131.3096,687.75 L1131.3096,685.5938 L1133.7784,685.5938 L1133.7784,677.5156 L1131.3096,677.5156 Z " fill="#000000"/><text fill="#000000" font-family="sans-serif" font-size="14" font-style="italic" lengthAdjust="spacing" textLength="136.7188" x="1155.8877" y="686.5967">RaceAbilityProvider</text><line style="stroke:#181818;stroke-width:0.5;" x1="1066.21" x2="1349.7842" y1="697.75" y2="697.75"/><line style="stroke:#181818;stroke-width:0.5;" x1="1066.21" x2="1349.7842" y1="705.75" y2="705.75"/><ellipse cx="1076.21" cy="719.3984" fill="#84BE84" rx="3" ry="3" style="stroke:#038048;stroke-width:1;"/><text fill="#000000" font-family="sans-serif" font-size="14" lengthAdjust="spacing" textLength="259.5742" x="1085.21" y="722.7451">getRaceAbilities(): List&lt;RaceAbility&gt;</text></g><!--class ClassAbilityProvider--><g class="entity" data-entity="ClassAbilityProvider" data-source-line="31" data-uid="ent0017" id="entity_ClassAbilityProvider"><rect fill="#F1F1F1" height="64.2969" rx="2.5" ry="2.5" style="stroke:#181818;stroke-width:0.5;" width="290.0039" x="1386" y="665.75"/><ellipse cx="1457.2852" cy="681.75" fill="#B4A7E5" rx="11" ry="11" style="stroke:#181818;stroke-width:1;"/><path d="M1453.207,677.5156 L1453.207,675.3594 L1460.5977,675.3594 L1460.5977,677.5156 L1458.1289,677.5156 L1458.1289,685.5938 L1460.5977,685.5938 L1460.5977,687.75 L1453.207,687.75 L1453.207,685.5938 L1455.6758,685.5938 L1455.6758,677.5156 L1453.207,677.5156 Z " fill="#000000"/><text fill="#000000" font-family="sans-serif" font-size="14" font-style="italic" lengthAdjust="spacing" textLength="138.9336" x="1477.7852" y="686.5967">ClassAbilityProvider</text><line style="stroke:#181818;stroke-width:0.5;" x1="1387" x2="1675.0039" y1="697.75" y2="697.75"/><line style="stroke:#181818;stroke-width:0.5;" x1="1387" x2="1675.0039" y1="705.75" y2="705.75"/><ellipse cx="1397" cy="719.3984" fill="#84BE84" rx="3" ry="3" style="stroke:#038048;stroke-width:1;"/><text fill="#000000" font-family="sans-serif" font-size="14" lengthAdjust="spacing" textLength="264.0039" x="1406" y="722.7451">getClassAbilities(): List&lt;ClassAbility&gt;</text></g><!--class Race--><g class="entity" data-entity="Race" data-source-line="37" data-uid="ent0019" id="entity_Race"><rect fill="#F1F1F1" height="170.3438" rx="2.5" ry="2.5" style="stroke:#181818;stroke-width:0.5;" width="487.002" x="1732.5" y="812.05"/><ellipse cx="1927.9395" cy="832.1828" fill="#EB937F" rx="11" ry="11" style="stroke:#181818;stroke-width:1;"/><path d="M1932.0488,838.1828 L1924.3301,838.1828 L1924.3301,825.7922 L1932.0488,825.7922 L1932.0488,827.9484 L1926.7832,827.9484 L1926.7832,830.6203 L1931.5488,830.6203 L1931.5488,832.7766 L1926.7832,832.7766 L1926.7832,836.0266 L1932.0488,836.0266 L1932.0488,838.1828 Z " fill="#000000"/><text fill="#000000" font-family="sans-serif" font-size="12" font-style="italic" lengthAdjust="spacing" textLength="91.623" x="1946.4395" y="828.1887">&#171;enumeration&#187;</text><text fill="#000000" font-family="sans-serif" font-size="14" lengthAdjust="spacing" textLength="34.6172" x="1974.9424" y="844.0139">Race</text><line style="stroke:#181818;stroke-width:0.5;" x1="1733.5" x2="2218.502" y1="852.3156" y2="852.3156"/><text fill="#000000" font-family="sans-serif" font-size="14" lengthAdjust="spacing" textLength="52.9033" x="1738.5" y="869.3107">HUMAN</text><text fill="#000000" font-family="sans-serif" font-size="14" lengthAdjust="spacing" textLength="24.6982" x="1738.5" y="885.6076">ELF</text><text fill="#000000" font-family="sans-serif" font-size="14" lengthAdjust="spacing" textLength="30.5225" x="1738.5" y="901.9045">ORC</text><text fill="#000000" font-family="sans-serif" font-size="14" lengthAdjust="spacing" textLength="51.9805" x="1738.5" y="918.2014">DWARF</text><text fill="#000000" font-family="sans-serif" font-size="14" lengthAdjust="spacing" textLength="76.2275" x="1738.5" y="934.4982">NIGHT_ELF</text><text fill="#000000" font-family="sans-serif" font-size="14" lengthAdjust="spacing" textLength="53.2656" x="1738.5" y="950.7951">GNOME</text><text fill="#000000" font-family="sans-serif" font-size="14" lengthAdjust="spacing" textLength="475.002" x="1738.5" y="967.092">//&#8230; autres races: chaque valeur renvoie ses RaceAbility sp&#233;cifiques</text><line style="stroke:#181818;stroke-width:0.5;" x1="1733.5" x2="2218.502" y1="974.3938" y2="974.3938"/></g><!--class Profession--><g class="entity" data-entity="Profession" data-source-line="46" data-uid="ent0021" id="entity_Profession"><rect fill="#F1F1F1" height="170.3438" rx="2.5" ry="2.5" style="stroke:#181818;stroke-width:0.5;" width="501.9385" x="2254.03" y="812.05"/><ellipse cx="2456.9377" cy="832.1828" fill="#EB937F" rx="11" ry="11" style="stroke:#181818;stroke-width:1;"/><path d="M2461.0471,838.1828 L2453.3283,838.1828 L2453.3283,825.7922 L2461.0471,825.7922 L2461.0471,827.9484 L2455.7815,827.9484 L2455.7815,830.6203 L2460.5471,830.6203 L2460.5471,832.7766 L2455.7815,832.7766 L2455.7815,836.0266 L2461.0471,836.0266 L2461.0471,838.1828 Z " fill="#000000"/><text fill="#000000" font-family="sans-serif" font-size="12" font-style="italic" lengthAdjust="spacing" textLength="91.623" x="2475.4377" y="828.1887">&#171;enumeration&#187;</text><text fill="#000000" font-family="sans-serif" font-size="14" lengthAdjust="spacing" textLength="72.2217" x="2485.1384" y="844.0139">Profession</text><line style="stroke:#181818;stroke-width:0.5;" x1="2255.03" x2="2754.9685" y1="852.3156" y2="852.3156"/><text fill="#000000" font-family="sans-serif" font-size="14" lengthAdjust="spacing" textLength="67.751" x="2260.03" y="869.3107">WARRIOR</text><text fill="#000000" font-family="sans-serif" font-size="14" lengthAdjust="spacing" textLength="41.3506" x="2260.03" y="885.6076">MAGE</text><text fill="#000000" font-family="sans-serif" font-size="14" lengthAdjust="spacing" textLength="50.6885" x="2260.03" y="901.9045">ROGUE</text><text fill="#000000" font-family="sans-serif" font-size="14" lengthAdjust="spacing" textLength="48.583" x="2260.03" y="918.2014">PRIEST</text><text fill="#000000" font-family="sans-serif" font-size="14" lengthAdjust="spacing" textLength="58.3721" x="2260.03" y="934.4982">HUNTER</text><text fill="#000000" font-family="sans-serif" font-size="14" lengthAdjust="spacing" textLength="60.7783" x="2260.03" y="950.7951">PALADIN</text><text fill="#000000" font-family="sans-serif" font-size="14" lengthAdjust="spacing" textLength="489.9385" x="2260.03" y="967.092">//&#8230; autres classes: chaque valeur renvoie ses ClassAbility sp&#233;cifiques</text><line style="stroke:#181818;stroke-width:0.5;" x1="2255.03" x2="2754.9685" y1="974.3938" y2="974.3938"/></g><!--class Item--><g class="entity" data-entity="Item" data-source-line="58" data-uid="ent0024" id="entity_Item"><rect fill="#F1F1F1" height="64.2969" rx="2.5" ry="2.5" style="stroke:#181818;stroke-width:0.5;" width="415.6074" x="70.2" y="135.15"/><ellipse cx="257.8191" cy="151.15" fill="#B4A7E5" rx="11" ry="11" style="stroke:#181818;stroke-width:1;"/><path d="M253.741,146.9156 L253.741,144.7594 L261.1316,144.7594 L261.1316,146.9156 L258.6629,146.9156 L258.6629,154.9938 L261.1316,154.9938 L261.1316,157.15 L253.741,157.15 L253.741,154.9938 L256.2098,154.9938 L256.2098,146.9156 L253.741,146.9156 Z " fill="#000000"/><text fill="#000000" font-family="sans-serif" font-size="14" font-style="italic" lengthAdjust="spacing" textLength="31.8691" x="278.3191" y="155.9967">Item</text><line style="stroke:#181818;stroke-width:0.5;" x1="71.2" x2="484.8074" y1="167.15" y2="167.15"/><line style="stroke:#181818;stroke-width:0.5;" x1="71.2" x2="484.8074" y1="175.15" y2="175.15"/><ellipse cx="81.2" cy="188.7984" fill="#84BE84" rx="3" ry="3" style="stroke:#038048;stroke-width:1;"/><text fill="#000000" font-family="sans-serif" font-size="14" lengthAdjust="spacing" textLength="389.6074" x="90.2" y="192.1451">use(target: com.votregame.characters.Character): void</text></g><!--class Consumable--><g class="entity" data-entity="Consumable" data-source-line="61" data-uid="ent0025" id="entity_Consumable"><rect fill="#F1F1F1" height="48" rx="2.5" ry="2.5" style="stroke:#181818;stroke-width:0.5;" width="118.9873" x="161.51" y="421.67"/><ellipse cx="176.51" cy="437.67" fill="#ADD1B2" rx="11" ry="11" style="stroke:#181818;stroke-width:1;"/><path d="M179.4788,443.3106 Q178.9006,443.6075 178.26,443.7481 Q177.6194,443.9044 176.9163,443.9044 Q174.4163,443.9044 173.0881,442.2638 Q171.7756,440.6075 171.7756,437.4825 Q171.7756,434.3575 173.0881,432.7013 Q174.4163,431.045 176.9163,431.045 Q177.6194,431.045 178.26,431.2013 Q178.9163,431.3575 179.4788,431.6544 L179.4788,434.3731 Q178.8538,433.795 178.26,433.5294 Q177.6663,433.2481 177.0413,433.2481 Q175.6975,433.2481 175.01,434.3263 Q174.3225,435.3888 174.3225,437.4825 Q174.3225,439.5763 175.01,440.6544 Q175.6975,441.7169 177.0413,441.7169 Q177.6663,441.7169 178.26,441.4513 Q178.8538,441.17 179.4788,440.5919 L179.4788,443.3106 Z " fill="#000000"/><text fill="#000000" font-family="sans-serif" font-size="14" lengthAdjust="spacing" textLength="86.9873" x="190.51" y="442.5167">Consumable</text><line style="stroke:#181818;stroke-width:0.5;" x1="162.51" x2="279.4973" y1="453.67" y2="453.67"/><line style="stroke:#181818;stroke-width:0.5;" x1="162.51" x2="279.4973" y1="461.67" y2="461.67"/></g><!--class Equipment--><g class="entity" data-entity="Equipment" data-source-line="62" data-uid="ent0027" id="entity_Equipment"><rect fill="#F1F1F1" height="48" rx="2.5" ry="2.5" style="stroke:#181818;stroke-width:0.5;" width="107.9951" x="315" y="421.67"/><ellipse cx="330" cy="437.67" fill="#ADD1B2" rx="11" ry="11" style="stroke:#181818;stroke-width:1;"/><path d="M332.9688,443.3106 Q332.3906,443.6075 331.75,443.7481 Q331.1094,443.9044 330.4063,443.9044 Q327.9063,443.9044 326.5781,442.2638 Q325.2656,440.6075 325.2656,437.4825 Q325.2656,434.3575 326.5781,432.7013 Q327.9063,431.045 330.4063,431.045 Q331.1094,431.045 331.75,431.2013 Q332.4063,431.3575 332.9688,431.6544 L332.9688,434.3731 Q332.3438,433.795 331.75,433.5294 Q331.1563,433.2481 330.5313,433.2481 Q329.1875,433.2481 328.5,434.3263 Q327.8125,435.3888 327.8125,437.4825 Q327.8125,439.5763 328.5,440.6544 Q329.1875,441.7169 330.5313,441.7169 Q331.1563,441.7169 331.75,441.4513 Q332.3438,441.17 332.9688,440.5919 L332.9688,443.3106 Z " fill="#000000"/><text fill="#000000" font-family="sans-serif" font-size="14" lengthAdjust="spacing" textLength="75.9951" x="344" y="442.5167">Equipment</text><line style="stroke:#181818;stroke-width:0.5;" x1="316" x2="421.9951" y1="453.67" y2="453.67"/><line style="stroke:#181818;stroke-width:0.5;" x1="316" x2="421.9951" y1="461.67" y2="461.67"/></g><!--class TurnManager--><g class="entity" data-entity="TurnManager" data-source-line="66" data-uid="ent0030" id="entity_TurnManager"><rect fill="#F1F1F1" height="80.5938" rx="2.5" ry="2.5" style="stroke:#181818;stroke-width:0.5;" width="442.7324" x="541.63" y="127"/><ellipse cx="712.0363" cy="143" fill="#ADD1B2" rx="11" ry="11" style="stroke:#181818;stroke-width:1;"/><path d="M715.005,148.6406 Q714.4269,148.9375 713.7863,149.0781 Q713.1456,149.2344 712.4425,149.2344 Q709.9425,149.2344 708.6144,147.5938 Q707.3019,145.9375 707.3019,142.8125 Q707.3019,139.6875 708.6144,138.0313 Q709.9425,136.375 712.4425,136.375 Q713.1456,136.375 713.7863,136.5313 Q714.4425,136.6875 715.005,136.9844 L715.005,139.7031 Q714.38,139.125 713.7863,138.8594 Q713.1925,138.5781 712.5675,138.5781 Q711.2238,138.5781 710.5363,139.6563 Q709.8488,140.7188 709.8488,142.8125 Q709.8488,144.9063 710.5363,145.9844 Q711.2238,147.0469 712.5675,147.0469 Q713.1925,147.0469 713.7863,146.7813 Q714.38,146.5 715.005,145.9219 L715.005,148.6406 Z " fill="#000000"/><text fill="#000000" font-family="sans-serif" font-size="14" lengthAdjust="spacing" textLength="93.4199" x="732.5363" y="147.8467">TurnManager</text><line style="stroke:#181818;stroke-width:0.5;" x1="542.63" x2="983.3624" y1="159" y2="159"/><rect fill="none" height="6" style="stroke:#C82930;stroke-width:1;" width="6" x="549.63" y="169.6484"/><text fill="#000000" font-family="sans-serif" font-size="14" lengthAdjust="spacing" textLength="416.7324" x="561.63" y="175.9951">turnQueue: Queue&lt;com.votregame.characters.Character&gt;</text><line style="stroke:#181818;stroke-width:0.5;" x1="542.63" x2="983.3624" y1="183.2969" y2="183.2969"/><ellipse cx="552.63" cy="196.9453" fill="#84BE84" rx="3" ry="3" style="stroke:#038048;stroke-width:1;"/><text fill="#000000" font-family="sans-serif" font-size="14" lengthAdjust="spacing" textLength="113.0322" x="561.63" y="200.292">nextTurn(): void</text></g><!--class CombatManager--><g class="entity" data-entity="CombatManager" data-source-line="70" data-uid="ent0031" id="entity_CombatManager"><rect fill="#F1F1F1" height="80.5938" rx="2.5" ry="2.5" style="stroke:#181818;stroke-width:0.5;" width="379.083" x="1019.46" y="127"/><ellipse cx="1146.6016" cy="143" fill="#ADD1B2" rx="11" ry="11" style="stroke:#181818;stroke-width:1;"/><path d="M1149.5704,148.6406 Q1148.9922,148.9375 1148.3516,149.0781 Q1147.711,149.2344 1147.0079,149.2344 Q1144.5079,149.2344 1143.1797,147.5938 Q1141.8672,145.9375 1141.8672,142.8125 Q1141.8672,139.6875 1143.1797,138.0313 Q1144.5079,136.375 1147.0079,136.375 Q1147.711,136.375 1148.3516,136.5313 Q1149.0079,136.6875 1149.5704,136.9844 L1149.5704,139.7031 Q1148.9454,139.125 1148.3516,138.8594 Q1147.7579,138.5781 1147.1329,138.5781 Q1145.7891,138.5781 1145.1016,139.6563 Q1144.4141,140.7188 1144.4141,142.8125 Q1144.4141,144.9063 1145.1016,145.9844 Q1145.7891,147.0469 1147.1329,147.0469 Q1147.7579,147.0469 1148.3516,146.7813 Q1148.9454,146.5 1149.5704,145.9219 L1149.5704,148.6406 Z " fill="#000000"/><text fill="#000000" font-family="sans-serif" font-size="14" lengthAdjust="spacing" textLength="116.2998" x="1167.1016" y="147.8467">CombatManager</text><line style="stroke:#181818;stroke-width:0.5;" x1="1020.46" x2="1397.543" y1="159" y2="159"/><line style="stroke:#181818;stroke-width:0.5;" x1="1020.46" x2="1397.543" y1="167" y2="167"/><ellipse cx="1030.46" cy="180.6484" fill="#84BE84" rx="3" ry="3" style="stroke:#038048;stroke-width:1;"/><text fill="#000000" font-family="sans-serif" font-size="14" lengthAdjust="spacing" textLength="353.083" x="1039.46" y="183.9951">startCombat(p: com.votregame.characters.Player,</text><text fill="#000000" font-family="sans-serif" font-size="14" lengthAdjust="spacing" textLength="284.7373" x="1039.46" y="200.292">e: com.votregame.characters.NPC): void</text></g><!--class InvalidActionException--><g class="entity" data-entity="InvalidActionException" data-source-line="77" data-uid="ent0033" id="entity_InvalidActionException"><rect fill="#F1F1F1" height="48" rx="2.5" ry="2.5" style="stroke:#181818;stroke-width:0.5;" width="191.7695" x="2009.12" y="421.67"/><ellipse cx="2024.12" cy="437.67" fill="#ADD1B2" rx="11" ry="11" style="stroke:#181818;stroke-width:1;"/><path d="M2027.0888,443.3106 Q2026.5106,443.6075 2025.87,443.7481 Q2025.2294,443.9044 2024.5263,443.9044 Q2022.0263,443.9044 2020.6981,442.2638 Q2019.3856,440.6075 2019.3856,437.4825 Q2019.3856,434.3575 2020.6981,432.7013 Q2022.0263,431.045 2024.5263,431.045 Q2025.2294,431.045 2025.87,431.2013 Q2026.5263,431.3575 2027.0888,431.6544 L2027.0888,434.3731 Q2026.4638,433.795 2025.87,433.5294 Q2025.2763,433.2481 2024.6513,433.2481 Q2023.3075,433.2481 2022.62,434.3263 Q2021.9325,435.3888 2021.9325,437.4825 Q2021.9325,439.5763 2022.62,440.6544 Q2023.3075,441.7169 2024.6513,441.7169 Q2025.2763,441.7169 2025.87,441.4513 Q2026.4638,441.17 2027.0888,440.5919 L2027.0888,443.3106 Z " fill="#000000"/><text fill="#000000" font-family="sans-serif" font-size="14" lengthAdjust="spacing" textLength="159.7695" x="2038.12" y="442.5167">InvalidActionException</text><line style="stroke:#181818;stroke-width:0.5;" x1="2010.12" x2="2199.8895" y1="453.67" y2="453.67"/><line style="stroke:#181818;stroke-width:0.5;" x1="2010.12" x2="2199.8895" y1="461.67" y2="461.67"/></g><!--class Exception--><g class="entity" data-entity="Exception" data-source-line="77" data-uid="ent0034" id="entity_Exception"><rect fill="#F1F1F1" height="48" rx="2.5" ry="2.5" style="stroke:#181818;stroke-width:0.5;" width="101.1455" x="2054.43" y="143.3"/><ellipse cx="2069.43" cy="159.3" fill="#ADD1B2" rx="11" ry="11" style="stroke:#181818;stroke-width:1;"/><path d="M2072.3988,164.9406 Q2071.8206,165.2375 2071.18,165.3781 Q2070.5394,165.5344 2069.8363,165.5344 Q2067.3363,165.5344 2066.0081,163.8938 Q2064.6956,162.2375 2064.6956,159.1125 Q2064.6956,155.9875 2066.0081,154.3313 Q2067.3363,152.675 2069.8363,152.675 Q2070.5394,152.675 2071.18,152.8313 Q2071.8363,152.9875 2072.3988,153.2844 L2072.3988,156.0031 Q2071.7738,155.425 2071.18,155.1594 Q2070.5863,154.8781 2069.9613,154.8781 Q2068.6175,154.8781 2067.93,155.9563 Q2067.2425,157.0188 2067.2425,159.1125 Q2067.2425,161.2063 2067.93,162.2844 Q2068.6175,163.3469 2069.9613,163.3469 Q2070.5863,163.3469 2071.18,163.0813 Q2071.7738,162.8 2072.3988,162.2219 L2072.3988,164.9406 Z " fill="#000000"/><text fill="#000000" font-family="sans-serif" font-size="14" lengthAdjust="spacing" textLength="69.1455" x="2083.43" y="164.1467">Exception</text><line style="stroke:#181818;stroke-width:0.5;" x1="2055.43" x2="2154.5755" y1="175.3" y2="175.3"/><line style="stroke:#181818;stroke-width:0.5;" x1="2055.43" x2="2154.5755" y1="183.3" y2="183.3"/></g><!--reverse link Character to Player--><g class="link" data-entity-1="Character" data-entity-2="Player" data-source-line="19" data-uid="lnk7" id="link_Character_Player"><path d="M759.0252,601.6852 C767.7752,636.4352 771.81,652.44 777.17,673.73" fill="none" id="Character-backto-Player" style="stroke:#181818;stroke-width:1;"/><polygon fill="none" points="754.63,584.23,753.2068,603.1502,764.8436,600.2201,754.63,584.23" style="stroke:#181818;stroke-width:1;"/></g><!--reverse link Character to NPC--><g class="link" data-entity-1="Character" data-entity-2="NPC" data-source-line="20" data-uid="lnk9" id="link_Character_NPC"><path d="M695.1712,602.0047 C689.6212,636.7547 687.11,652.44 683.7,673.73" fill="none" id="Character-backto-NPC" style="stroke:#181818;stroke-width:1;"/><polygon fill="none" points="698.01,584.23,689.2462,601.0584,701.0961,602.951,698.01,584.23" style="stroke:#181818;stroke-width:1;"/></g><!--reverse link Ability to RaceAbility--><g class="link" data-entity-1="Ability" data-entity-2="RaceAbility" data-source-line="25" data-uid="lnk13" id="link_Ability_RaceAbility"><path d="M995.5645,740.2436 C998.8345,778.2136 1003.72,834.88 1006.99,872.84" fill="none" id="Ability-backto-RaceAbility" style="stroke:#181818;stroke-width:1;"/><polygon fill="none" points="994.02,722.31,989.5866,740.7584,1001.5423,739.7288,994.02,722.31" style="stroke:#181818;stroke-width:1;"/></g><!--reverse link Ability to ClassAbility--><g class="link" data-entity-1="Ability" data-entity-2="ClassAbility" data-source-line="26" data-uid="lnk15" id="link_Ability_ClassAbility"><path d="M1032.3515,733.7963 C1041.5115,741.5463 1038.18,738.47 1048,745.9 C1062.58,756.93 1069.54,755.67 1082,769.05 C1111.43,800.63 1134.25,845.94 1146.37,873.08" fill="none" id="Ability-backto-ClassAbility" style="stroke:#181818;stroke-width:1;"/><polygon fill="none" points="1018.61,722.17,1028.4761,738.3768,1036.227,729.2158,1018.61,722.17" style="stroke:#181818;stroke-width:1;"/></g><!--reverse link RaceAbilityProvider to Race--><g class="link" data-entity-1="RaceAbilityProvider" data-entity-2="Race" data-source-line="38" data-uid="lnk20" id="link_RaceAbilityProvider_Race"><path d="M1320.547,735.4114 C1341.667,741.4014 1346.77,742.07 1368,745.9 C1510.07,771.53 1551.99,733.87 1692,769.05 C1732.47,779.22 1774.38,794.83 1813.17,811.67" fill="none" id="RaceAbilityProvider-backto-Race" style="stroke:#181818;stroke-width:1;stroke-dasharray:7.0,7.0;"/><polygon fill="none" points="1303.23,730.5,1318.9099,741.1837,1322.1841,729.6391,1303.23,730.5" style="stroke:#181818;stroke-width:1;"/></g><!--link Race to RaceAbilityProvider--><g class="link" data-entity-1="Race" data-entity-2="RaceAbilityProvider" data-source-line="82" data-uid="lnk37" id="link_Race_RaceAbilityProvider"><path codeLine="82" d="M1813.17,811.67 C1774.38,794.83 1732.47,779.22 1692,769.05 C1621.99,751.46 1439.04,758.72 1368,745.9 C1346.77,742.07 1341.667,741.4014 1320.547,735.4114" fill="none" id="Race-to-RaceAbilityProvider" style="stroke:#181818;stroke-width:1;stroke-dasharray:7.0,7.0;"/><polygon fill="none" points="1303.23,730.5,1318.9099,741.1837,1322.1841,729.6391,1303.23,730.5" style="stroke:#181818;stroke-width:1;"/></g><!--reverse link ClassAbilityProvider to Profession--><g class="link" data-entity-1="ClassAbilityProvider" data-entity-2="Profession" data-source-line="47" data-uid="lnk22" id="link_ClassAbilityProvider_Profession"><path d="M1694.3053,699.2931 C1838.9453,702.6131 2048.01,716.53 2237,769.05 C2274.71,779.53 2313.65,794.99 2349.77,811.56" fill="none" id="ClassAbilityProvider-backto-Profession" style="stroke:#181818;stroke-width:1;stroke-dasharray:7.0,7.0;"/><polygon fill="none" points="1676.31,698.88,1694.1676,705.2915,1694.4429,693.2946,1676.31,698.88" style="stroke:#181818;stroke-width:1;"/></g><!--link Profession to ClassAbilityProvider--><g class="link" data-entity-1="Profession" data-entity-2="ClassAbilityProvider" data-source-line="83" data-uid="lnk38" id="link_Profession_ClassAbilityProvider"><path codeLine="83" d="M2332.25,811.63 C2300.77,796.96 2268.06,782.21 2237,769.05 C2226.51,764.6 2224.11,762.58 2213,760.05 C2031.03,718.57 1833.7414,705.528 1694.4414,701.208" fill="none" id="Profession-to-ClassAbilityProvider" style="stroke:#181818;stroke-width:1;stroke-dasharray:7.0,7.0;"/><polygon fill="none" points="1676.45,700.65,1694.2554,707.2051,1694.6273,695.2108,1676.45,700.65" style="stroke:#181818;stroke-width:1;"/></g><!--reverse link Item to Consumable--><g class="link" data-entity-1="Item" data-entity-2="Consumable" data-source-line="61" data-uid="lnk26" id="link_Item_Consumable"><path d="M267.8829,217.3587 C256.3229,273.3887 236.06,371.64 225.82,421.28" fill="none" id="Item-backto-Consumable" style="stroke:#181818;stroke-width:1;stroke-dasharray:7.0,7.0;"/><polygon fill="none" points="271.52,199.73,262.0066,216.1463,273.7591,218.5711,271.52,199.73" style="stroke:#181818;stroke-width:1;"/></g><!--reverse link Item to Equipment--><g class="link" data-entity-1="Item" data-entity-2="Equipment" data-source-line="62" data-uid="lnk28" id="link_Item_Equipment"><path d="M293.9798,216.8269 C312.4298,272.8569 344.95,371.64 361.3,421.28" fill="none" id="Item-backto-Equipment" style="stroke:#181818;stroke-width:1;stroke-dasharray:7.0,7.0;"/><polygon fill="none" points="288.35,199.73,288.2808,218.7035,299.6788,214.9503,288.35,199.73" style="stroke:#181818;stroke-width:1;"/></g><!--reverse link Exception to InvalidActionException--><g class="link" data-entity-1="Exception" data-entity-2="InvalidActionException" data-source-line="77" data-uid="lnk35" id="link_Exception_InvalidActionException"><path d="M2105,209.38 C2105,261.41 2105,369.31 2105,421.45" fill="none" id="Exception-backto-InvalidActionException" style="stroke:#181818;stroke-width:1;"/><polygon fill="none" points="2105,191.38,2099,209.38,2111,209.38,2105,191.38" style="stroke:#181818;stroke-width:1;"/></g><!--reverse link Character to Ability--><g class="link" data-entity-1="Character" data-entity-2="Ability" data-source-line="81" data-uid="lnk36" id="link_Character_Ability"><path codeLine="81" d="M880.8671,592.1373 C895.0971,605.1773 900.42,610.13 914,622.75 C932.21,639.66 952.55,659.01 967.89,673.71" fill="none" id="Character-backto-Ability" style="stroke:#181818;stroke-width:1;"/><polygon fill="#181818" points="872.02,584.03,873.7411,591.0327,880.8671,592.1373,879.146,585.1346,872.02,584.03" style="stroke:#181818;stroke-width:1;"/><text fill="#000000" font-family="sans-serif" font-size="13" lengthAdjust="spacing" textLength="8.271" x="871.6591" y="603.6213">1</text><text fill="#000000" font-family="sans-serif" font-size="13" lengthAdjust="spacing" textLength="6.5" x="955.0062" y="662.6733">*</text></g><!--link CombatManager to Character--><g class="link" data-entity-1="CombatManager" data-entity-2="Character" data-source-line="84" data-uid="lnk39" id="link_CombatManager_Character"><path codeLine="84" d="M1138.68,208.04 C1075.98,243.48 986.7031,293.9272 903.3531,341.0472" fill="none" id="CombatManager-to-Character" style="stroke:#181818;stroke-width:1;stroke-dasharray:7.0,7.0;"/><polygon fill="#181818" points="898.13,344,907.9332,343.0529,902.4826,341.5394,903.9962,336.0887,898.13,344" style="stroke:#181818;stroke-width:1;"/><text fill="#000000" font-family="sans-serif" font-size="13" lengthAdjust="spacing" textLength="59.8584" x="1078" y="252.6569">manages</text></g><!--SRC=[dLNTRjem5BxdAOwuALlRLBkDA1AY6KKgFqkfTZcPS4Yj9IQD7KIrLThJJEfpz4ts93jsGd160jkGGfpp__lvxFhw6cxUNbTSSCNN0fOe8M71LnRIWPYjuWFQmJfsDckLOiXYT897bh90OIhRyAq5m1PIQG844PCI1ZksOG9SWY0j5-vLoaLOa4W3HQWUNU125JGMyeYhPvj49umY7g88qARB175f4oBSO6GJS9jWol_KOmljWgDquOvBrQqcLdATlZazzupQEJ2bg1GTnT8GbRlFy9qBcpLV5b9BNA5OTgh4J69XhCDSEE7l0enMvNV2QSYuyCfSEzl4f5kLCSLvIAp8NkZ9kpMBs3Er2hUAOhUQLmfCPeCQxakhQJhAfFBXq1rCLon0A7Aiq7pwA-YbapgvWGwbIR39uYnTR_Yod4Eg5QezcoBK1J5ZO2drYkhK-wupQV5jcxPQRhIvPb8nLTGBHHQR9A3RrMTCcLxENWzud4GOer2oSOoQaxzz6FSdvkJTVJJlgJymxvlFVJ-dJ4R3s_cN7NyucOuzSxgw-lNZ9x2C_4cW_klj8GnuoX0sBC8i1Tfb6Ym4IG9sIsNozXhm5ITHMTJLv4V1hL1A3Jh_aUMHXb0k_cZgc_EuFypZzwV3X_mqyqVU_Rmeo6JkvOAp_bt_PZGvpDKimF5iAuDva6vpnxd2-613HaGi9uk0emIS9lnrQa1Xlzg3jP1Pp1OHsbNLJaeHxodZYQOVI3I7JbyBflBOSolpB1LZ9aXsZ_cAQ9yop0X-pQjxEeSTsWfQS6soKv-KzbxrTaxN2KjLpkeaH-gLezt58Se27j4Y2BH3QIvDfdWaxSgC1CqCN_O3FTtUDi34tBGx12ifskQPlezzZCmcv1VmwPf1-qCRtbzUGljz-zJjqge17GCPu3ZVU_y2AhMMhAK-QgzkVLjr8-PKU-qulRzO170XDWhoDm00]--></g></svg>